<svg width="61" height="79" viewBox="0 0 61 79" fill="none" xmlns="http://www.w3.org/2000/svg">
<path fill-rule="evenodd" clip-rule="evenodd" d="M2.5262 2.5262C0 5.05241 0 9.11827 0 17.25V28.75C0 36.8817 0 40.9476 2.5262 43.4738C5.05241 46 9.11827 46 17.25 46H28.75C36.8817 46 40.9476 46 43.4738 43.4738C46 40.9476 46 36.8817 46 28.75V17.25C46 9.11827 46 5.05241 43.4738 2.5262C40.9476 0 36.8817 0 28.75 0H17.25C9.11827 0 5.05241 0 2.5262 2.5262ZM11.4811 14.4099C9.58715 14.4099 8.05 12.8571 8.05 10.9425C8.05 9.02789 9.58715 7.475 11.4811 7.475C13.3751 7.475 14.9123 9.02789 14.9123 10.9425C14.9123 12.8571 13.3771 14.4099 11.4811 14.4099ZM8.54016 38.525V16.9024H14.4221V38.525H8.54016ZM32.068 38.525H37.95V25.2389C37.95 14.9132 26.9644 15.2886 24.2254 20.3719V16.9024H18.3434V38.525H24.2254V27.5093C24.2254 21.3901 32.068 20.8889 32.068 27.5093V38.525Z" fill="url(#paint0_linear_6315_33)"/>
<path d="M1.26 72V62.2H2.982V70.432H8.134V72H1.26ZM9.75997 63.474V61.864H11.58V63.474H9.75997ZM9.82997 72V64.608H11.524V72H9.82997ZM13.7378 72V64.608H15.4318V65.756C16.0198 64.888 16.7898 64.454 17.7418 64.454C18.5632 64.454 19.2072 64.7107 19.6738 65.224C20.1405 65.7373 20.3738 66.428 20.3738 67.296V72H18.6798V67.8C18.6798 67.2213 18.5398 66.778 18.2598 66.47C17.9892 66.1527 17.6018 65.994 17.0978 65.994C16.6032 65.994 16.2018 66.1573 15.8938 66.484C15.5858 66.8107 15.4318 67.2587 15.4318 67.828V72H13.7378ZM22.4195 72V61.78H24.1135V67.884L27.1795 64.608H29.2375L26.2975 67.618L29.3355 72H27.3755L25.1495 68.808L24.1135 69.886V72H22.4195ZM33.6004 72.168C32.5178 72.168 31.6124 71.8087 30.8844 71.09C30.1658 70.3713 29.8064 69.4427 29.8064 68.304C29.8064 67.2307 30.1471 66.3207 30.8284 65.574C31.5098 64.8273 32.3731 64.454 33.4184 64.454C34.5384 64.454 35.4064 64.8367 36.0224 65.602C36.6478 66.358 36.9604 67.3007 36.9604 68.43C36.9604 68.6353 36.9511 68.794 36.9324 68.906H31.5004C31.5938 69.494 31.8318 69.956 32.2144 70.292C32.5971 70.6187 33.0684 70.782 33.6284 70.782C34.3564 70.782 35.0238 70.488 35.6304 69.9L36.6244 70.782C35.8591 71.706 34.8511 72.168 33.6004 72.168ZM31.4864 67.786H35.2804C35.2244 67.2167 35.0331 66.75 34.7064 66.386C34.3798 66.022 33.9458 65.84 33.4044 65.84C32.8911 65.84 32.4618 66.022 32.1164 66.386C31.7711 66.7407 31.5611 67.2073 31.4864 67.786ZM41.7137 72.154C40.7897 72.154 39.987 71.8087 39.3057 71.118C38.6243 70.418 38.2837 69.4753 38.2837 68.29C38.2837 67.114 38.6197 66.1807 39.2917 65.49C39.973 64.7993 40.7803 64.454 41.7137 64.454C42.7217 64.454 43.5617 64.888 44.2337 65.756V61.78H45.9277V72H44.2337V70.768C43.5803 71.692 42.7403 72.154 41.7137 72.154ZM40.6077 70.026C41.0277 70.4647 41.5317 70.684 42.1197 70.684C42.7077 70.684 43.2117 70.46 43.6317 70.012C44.0517 69.564 44.2617 68.99 44.2617 68.29C44.2617 67.5993 44.0517 67.0347 43.6317 66.596C43.2117 66.148 42.7077 65.924 42.1197 65.924C41.5223 65.924 41.0183 66.1433 40.6077 66.582C40.197 67.0113 39.9917 67.59 39.9917 68.318C39.9917 69.018 40.197 69.5873 40.6077 70.026Z" fill="#181818"/>
<path d="M48.3346 72V62.2H50.0566V72H48.3346ZM52.4839 72V64.608H54.1779V65.756C54.7659 64.888 55.5359 64.454 56.4879 64.454C57.3093 64.454 57.9533 64.7107 58.4199 65.224C58.8866 65.7373 59.1199 66.428 59.1199 67.296V72H57.4259V67.8C57.4259 67.2213 57.2859 66.778 57.0059 66.47C56.7353 66.1527 56.3479 65.994 55.8439 65.994C55.3493 65.994 54.9479 66.1573 54.6399 66.484C54.3319 66.8107 54.1779 67.2587 54.1779 67.828V72H52.4839Z" fill="#0275B1"/>
<defs>
<linearGradient id="paint0_linear_6315_33" x1="23" y1="0" x2="23" y2="46" gradientUnits="userSpaceOnUse">
<stop stop-color="#0077B5"/>
<stop offset="1" stop-color="#0E6795"/>
</linearGradient>
</defs>
</svg>
